<svg xmlns="http://www.w3.org/2000/svg" width="480" height="300" viewBox="0 0 480 300" fill="none" stroke-linecap="round" stroke-linejoin="round">
<defs><clipPath id="a"><path d="M70 110 Q170 40 270 110 Q170 176 70 110 Z"/></clipPath></defs>
<path d="M60 30 Q140 8 250 26" stroke="#767680" stroke-width="7" stroke-opacity="0.6"/>
<path d="M58 56 Q64 36 86 36 Q102 26 118 38 Q134 40 134 54 Q128 70 106 66 Q90 76 74 68 Q56 68 58 56 Z" fill="#b7cde6" fill-opacity="0.14" stroke="#4f78a8" stroke-width="1.6"/>
<path d="M70 110 Q170 40 270 110 Q170 176 70 110 Z" fill="#1f3550" fill-opacity="0.07"/>
<g clip-path="url(#a)">
<circle cx="170" cy="110" r="32" fill="#b9a7d9" fill-opacity="0.22" stroke="#767680" stroke-width="1.6"/>
<circle cx="170" cy="110" r="11" fill="#05070a" stroke="#767680" stroke-width="1"/>
</g>
<path d="M70 110 Q170 40 270 110" stroke="#4a525e" stroke-width="2.4"/>
<path d="M70 110 Q170 176 270 110" stroke="#4a525e" stroke-width="2"/>
<circle cx="256" cy="101" r="2.6" fill="#05070a" stroke="#4a525e" stroke-width="1.4"/>
<circle cx="256" cy="119" r="2.6" fill="#05070a" stroke="#4a525e" stroke-width="1.4"/>
<path d="M256 99 V93 Q257 90 261 91 L306 104 M256 121 V127 Q257 130 261 129 L306 116" stroke="#4a525e" stroke-width="5" stroke-opacity="0.35"/>
<path d="M256 99 V93 Q257 90 261 91 L306 104 M256 121 V127 Q257 130 261 129 L306 116" stroke="#4a525e" stroke-width="1.4"/>
<path d="M307 82 Q307 66 318 66 Q329 66 329 82 L329 168 Q328 176 334 190 L346 262 L332 264 L320 194 Q308 178 307 168 Z" fill="#1f3550" fill-opacity="0.06" stroke="#4a525e" stroke-width="2"/>
<path d="M312 90 V160 M324 196 L337 256" stroke="#3b9dff" stroke-width="2" stroke-dasharray="2 6"/>
<path d="M264 96 L300 106 M264 124 L300 114" stroke="#3b9dff" stroke-width="2" stroke-dasharray="2 6"/>
<path d="M100 62 Q150 86 236 104" stroke="#3b9dff" stroke-width="2" stroke-dasharray="2 6"/>
<path d="M331 265 L349 261" stroke="#e0474c" stroke-width="4"/>
<path d="M196 150 Q190 162 196 170 Q204 166 200 154 Z" fill="#3b9dff" fill-opacity="0.8"/>
<path d="M204 186 Q198 198 204 204 Q212 200 208 190 Z" fill="#3b9dff" fill-opacity="0.55"/>
<path d="M346 150 V252 M346 278 V290 H470 M470 150 V290" stroke="#767680" stroke-width="1.6"/>
<path d="M347 176 Q392 162 410 174 Q414 188 394 190 Q370 192 347 186" fill="#1f3550" fill-opacity="0.05" stroke="#767680" stroke-width="1.4"/>
<path d="M347 212 Q410 200 432 220 Q438 238 412 240 Q378 242 347 234" fill="#1f3550" fill-opacity="0.05" stroke="#767680" stroke-width="1.4"/>
</svg>
