<svg xmlns="http://www.w3.org/2000/svg" width="480" height="380" viewBox="0 0 480 380" fill="none" stroke-linecap="round" stroke-linejoin="round">
<rect x="10" y="14" width="148" height="350" rx="14" fill="#8a93a0" fill-opacity="0.07"/><rect x="166" y="14" width="148" height="350" rx="14" fill="#8a93a0" fill-opacity="0.07"/><rect x="322" y="14" width="148" height="350" rx="14" fill="#8a93a0" fill-opacity="0.07"/><g transform="translate(84 40) scale(0.5)"><path d="M -95 62 C -95 22 -56 0 0 0 C 56 0 95 22 95 62 C 95 110 62 160 42 192 L 40 215 C 44 240 44 270 38 300 L -38 300 C -44 270 -44 240 -40 215 L -42 192 C -62 160 -95 110 -95 62 Z" fill="#d9738a" fill-opacity="0.55" stroke="#b64a63" stroke-width="5.2"/><path d="M -68 60 C -40 46 40 46 68 60 C 60 105 34 152 8 192 L 8 300 L -8 300 L -8 192 C -34 152 -60 105 -68 60 Z" fill="#f4b8c5" stroke="#d9738a" stroke-width="2.8"/></g><path d="M84 260 L84 100" stroke="#767680" stroke-width="6"/><circle cx="84" cy="100" r="4" fill="#e0474c"/><rect x="76" y="256" width="16" height="30" rx="4" fill="#767680"/><path d="M84 286 V318" stroke="#5b6472" stroke-width="4"/><rect x="70" y="318" width="28" height="7" rx="3" fill="#5b6472"/><path d="M54 196 c-10 -8 -10 -20 0 -28 M114 196 c10 -8 10 -20 0 -28" stroke="#5b6472" stroke-width="2"/><g transform="translate(240 40) scale(0.5)"><path d="M -95 62 C -95 22 -56 0 0 0 C 56 0 95 22 95 62 C 95 110 62 160 42 192 L 40 215 C 44 240 44 270 38 300 L -38 300 C -44 270 -44 240 -40 215 L -42 192 C -62 160 -95 110 -95 62 Z" fill="#d9738a" fill-opacity="0.55" stroke="#b64a63" stroke-width="5.2"/><path d="M -68 60 C -40 46 40 46 68 60 C 60 105 34 152 8 192 L 8 300 L -8 300 L -8 192 C -34 152 -60 105 -68 60 Z" fill="#f4b8c5" stroke="#d9738a" stroke-width="2.8"/></g><path d="M240 250 L240 96" stroke="#767680" stroke-width="4"/><path d="M230 96 C230 78 250 78 250 96" stroke="#767680" stroke-width="3"/><rect x="234" y="250" width="12" height="36" rx="5" fill="#5b6472"/><rect x="188" y="300" width="4" height="52" rx="2" fill="#767680" fill-opacity="0.8"/><rect x="218" y="300" width="6" height="52" rx="3" fill="#767680" fill-opacity="0.8"/><rect x="248" y="300" width="8" height="52" rx="4" fill="#767680" fill-opacity="0.8"/><rect x="278" y="300" width="10" height="52" rx="5" fill="#767680" fill-opacity="0.8"/><circle cx="396" cy="140" r="58" fill="#f4b8c5" stroke="#b64a63" stroke-width="3"/><circle cx="396" cy="140" r="30" fill="#d9738a" fill-opacity="0.35"/><circle cx="396" cy="140" r="7" fill="#b64a63"/>
<path d="M374 104 C388 92 414 94 422 108 C410 118 386 116 374 104 Z" fill="#fff" fill-opacity="0.85"/>
<path d="M408 60 L400 96 M436 66 L410 100" stroke="#767680" stroke-width="7"/><path d="M398 96 l8 12 M412 100 l-4 12" stroke="#5b6472" stroke-width="5"/>
<path d="M408 60 L436 66" stroke="#5b6472" stroke-width="5"/>
<path d="M338 230 h116" stroke="#8a93a0" stroke-width="1.6" stroke-dasharray="3 4"/><path d="M396 238 L396 328" stroke="#767680" stroke-width="5"/><path d="M388 238 C388 226 404 226 404 238 Z" fill="#767680"/><circle cx="396" cy="330" r="6" fill="#5b6472"/>
</svg>
