<svg xmlns="http://www.w3.org/2000/svg" width="480" height="300" viewBox="0 0 480 300" fill="none" stroke-linecap="round" stroke-linejoin="round">
<circle cx="52" cy="90" r="4" fill="#e58a94"/>
<circle cx="122" cy="90" r="12" fill="#f8d4d8" stroke="#a3303a" stroke-width="2"/>
<circle cx="200" cy="90" r="20" fill="#f8d4d8" stroke="#a3303a" stroke-width="2"/>
<circle cx="282" cy="90" r="30" fill="#f8d4d8" stroke="#a3303a" stroke-width="2"/>
<circle cx="380" cy="90" r="42" fill="#fff" stroke="#a3303a" stroke-width="2.5"/>
<circle cx="380" cy="90" r="24" fill="#ffd9b0" stroke="#b87a3d" stroke-width="2"/>
<path d="M30 190 H460" stroke="#767680" stroke-width="3"/>
<rect x="30" y="178" width="128" height="24" rx="4" fill="#cfe6ff" stroke="#4f78a8" stroke-width="2"/>
<rect x="158" y="178" width="152" height="24" rx="4" fill="#6aa6de" stroke="#4f78a8" stroke-width="2"/>
<rect x="310" y="178" width="84" height="24" rx="4" fill="#3f86c6" stroke="#4f78a8" stroke-width="2"/>
<rect x="394" y="178" width="34" height="24" rx="4" fill="#e0474c" stroke="#a3303a" stroke-width="2"/>
<rect x="428" y="178" width="32" height="24" rx="4" fill="#f2b632" stroke="#c98a1c" stroke-width="2"/>
<path d="M200 128 V178 M380 142 V178" stroke="#767680" stroke-width="1.4" stroke-dasharray="3 4"/>
<path d="M30 250 q12 -28 24 0 t24 0 t24 0 t24 0" stroke="#e0474c" stroke-width="3"/>
<path d="M200 250 q8 -34 16 0 t16 0 t16 0 t16 0 t16 0 t16 0 t16 0" stroke="#e0474c" stroke-width="3"/>
</svg>
