<svg xmlns="http://www.w3.org/2000/svg" width="480" height="280" viewBox="0 0 480 280" fill="none" stroke-linecap="round" stroke-linejoin="round">
<rect width="480" height="280" rx="14" fill="#101826"/>
<rect x="30" y="30" width="100" height="26" rx="8" fill="#ef6b6b" stroke="none" stroke-width="2"/><rect x="140" y="30" width="100" height="26" rx="8" fill="#f5b942" stroke="none" stroke-width="2"/><rect x="250" y="30" width="100" height="26" rx="8" fill="#60a5fa" stroke="none" stroke-width="2"/><rect x="360" y="30" width="90" height="26" rx="8" fill="#4ade80" stroke="none" stroke-width="2"/><rect x="30" y="90" width="420" height="14" rx="7" fill="#1e293b" stroke="#475569" stroke-width="2"/><rect x="30" y="90" width="260" height="14" rx="7" fill="#ef6b6b" stroke="none" stroke-width="2"/><circle cx="290" cy="97" r="10" fill="#f5b942" stroke="none" stroke-width="2"/><line x1="290" y1="80" x2="290" y2="115" stroke="#f5b942" stroke-width="3"/><rect x="30" y="140" width="200" height="40" rx="10" fill="#1e293b" stroke="#2dd4bf" stroke-width="2"/><rect x="250" y="140" width="200" height="40" rx="10" fill="#1e293b" stroke="#a78bfa" stroke-width="2"/><rect x="30" y="200" width="420" height="60" rx="10" fill="#1e293b" stroke="#475569" stroke-width="2"/><circle cx="70" cy="230" r="12" fill="#2dd4bf" stroke="none" stroke-width="2"/><circle cx="130" cy="230" r="12" fill="#2dd4bf" stroke="none" stroke-width="2"/><circle cx="190" cy="230" r="12" fill="#2dd4bf" stroke="none" stroke-width="2"/><circle cx="250" cy="230" r="12" fill="#f5b942" stroke="none" stroke-width="2"/>
</svg>
