<svg xmlns="http://www.w3.org/2000/svg" width="480" height="300" viewBox="0 0 480 300" fill="none" stroke-linecap="round" stroke-linejoin="round">
<circle cx="150" cy="150" r="110" fill="#fff" stroke="#5a574f" stroke-width="3"/>
<path d="M150 150 L150 40 A110 110 0 0 1 245 95 Z" fill="#bfe3ee" stroke="#0e6f86" stroke-width="2"/>
<path d="M150 150 L245 95 A110 110 0 0 1 245 205 Z" fill="#f3e8f7" stroke="#7e3a8f" stroke-width="2"/>
<path d="M150 150 L245 205 A110 110 0 0 1 150 260 Z" fill="#fff3d6" stroke="#b45309" stroke-width="2"/>
<path d="M150 150 L150 260 A110 110 0 0 1 55 205 Z" fill="#fbe1df" stroke="#b42318" stroke-width="2"/>
<circle cx="150" cy="150" r="8" fill="#5a574f"/>
<g stroke-width="2.5"><rect x="320" y="40" width="130" height="34" rx="8" fill="#dcefd9" stroke="#15803d"/><rect x="320" y="90" width="130" height="34" rx="8" fill="#dcefd9" stroke="#15803d"/><rect x="320" y="140" width="130" height="34" rx="8" fill="#dcefd9" stroke="#15803d"/><rect x="320" y="190" width="130" height="34" rx="8" fill="#dcefd9" stroke="#15803d"/></g>
<g stroke="#15803d" stroke-width="3"><path d="M332 57 l6 6 l12 -12 M332 107 l6 6 l12 -12 M332 157 l6 6 l12 -12 M332 207 l6 6 l12 -12"/></g>
<rect x="320" y="240" width="130" height="34" rx="8" fill="#e6f4f8" stroke="#0e6f86" stroke-width="2.5"/><path d="M340 248 v18 M332 256 h16" stroke="#0e6f86" stroke-width="3"/>
</svg>
