<svg xmlns="http://www.w3.org/2000/svg" width="480" height="300" viewBox="0 0 480 300" fill="none" stroke-linecap="round" stroke-linejoin="round">
<circle cx="90" cy="96" r="52" fill="#fff" stroke="#767680" stroke-width="2.5"/>
<circle cx="90.0" cy="54.0" r="5.5" fill="#c98a00"/>
<circle cx="111.0" cy="59.6" r="2" fill="#767680"/>
<circle cx="126.4" cy="75.0" r="2" fill="#767680"/>
<circle cx="132.0" cy="96.0" r="2" fill="#767680"/>
<circle cx="126.4" cy="117.0" r="5.5" fill="#c98a00"/>
<circle cx="111.0" cy="132.4" r="2" fill="#767680"/>
<circle cx="90.0" cy="138.0" r="2" fill="#767680"/>
<circle cx="69.0" cy="132.4" r="2" fill="#767680"/>
<circle cx="53.6" cy="117.0" r="5.5" fill="#c98a00"/>
<circle cx="48.0" cy="96.0" r="2" fill="#767680"/>
<circle cx="53.6" cy="75.0" r="2" fill="#767680"/>
<circle cx="69.0" cy="59.6" r="2" fill="#767680"/>
<path d="M90 96 V66 M90 96 L110 106" stroke="#3a3a44" stroke-width="3"/>
<path d="M206 92 C206 72 226 64 244 70 L284 82" stroke="#767680" stroke-width="4"/>
<ellipse cx="216" cy="94" rx="18" ry="10" fill="#e6eef7" stroke="#767680" stroke-width="2"/>
<ellipse cx="216" cy="92" rx="12" ry="5" fill="#f2b632"/>
<path d="M350 140 H380 V116 H410 V92 H440" stroke="#c0392b" stroke-width="5"/>
<circle cx="90" cy="214" r="14" fill="#f5d0b5" stroke="#b98a6a" stroke-width="2"/>
<path d="M70 280 L74 236 C76 228 104 228 106 236 L110 280 Z" fill="#efe8f8" stroke="#6b4fa8" stroke-width="2"/>
<circle cx="228" cy="218" r="26" fill="#fff" stroke="#3a3a44" stroke-width="3"/>
<path d="M246 236 L272 262" stroke="#3a3a44" stroke-width="6"/>
<path d="M218 218 h20 M228 208 v20" stroke="#2f8a4c" stroke-width="3"/>
<rect x="352" y="194" width="84" height="84" rx="6" fill="#eef3fb" stroke="#4f78a8" stroke-width="2.5"/>
<path d="M394 194 V278" stroke="#4f78a8" stroke-width="1.5"/>
<rect x="384" y="228" width="20" height="16" rx="3" fill="#c98a00"/>
<path d="M388 228 V220 C388 212 400 212 400 220 V228" stroke="#c98a00" stroke-width="3"/>
</svg>
