<svg xmlns="http://www.w3.org/2000/svg" width="480" height="300" viewBox="0 0 480 300" fill="none" stroke-linecap="round" stroke-linejoin="round">
<path d="M20 262 q12 -10 24 0 t24 0 t24 0 t24 0 t24 0" stroke="#b98a6a" stroke-width="2"/>
<path d="M20 262 q12 -10 24 0 t24 0 t24 0 t24 0 t24 0 V290 H20 Z" fill="#f5d0b5"/>
<path d="M70 252 l4 -10 l4 10 l10 -2 l-6 8 l6 8 l-10 -2 l-4 10 l-4 -10 l-10 2 l6 -8 l-6 -8 Z" fill="#e0474c"/>
<path d="M78 246 C110 220 150 206 176 204" stroke="#4f78a8" stroke-width="3" stroke-dasharray="10 4"/>
<path d="M82 258 C118 236 152 220 176 214" stroke="#c0392b" stroke-width="2"/>
<circle cx="184" cy="208" r="10" fill="#efe8f8" stroke="#6b4fa8" stroke-width="2"/>
<path d="M194 206 C206 200 222 196 236 194" stroke="#6b4fa8" stroke-width="2.5"/>
<ellipse cx="262" cy="214" rx="52" ry="38" fill="#f6f6f8" stroke="#767680" stroke-width="2"/>
<path d="M262 196 C246 178 232 182 238 196 C244 206 252 208 256 214 C246 224 236 236 246 242 C254 244 258 232 262 226 C266 232 270 244 278 242 C288 236 278 224 268 214 C272 208 280 206 286 196 C292 182 278 178 262 196 Z" fill="#c9c9d1" stroke="#767680" stroke-width="1.5"/>
<circle cx="244" cy="192" r="6" fill="#e0474c" fill-opacity="0.8"/>
<path d="M246 194 C258 204 270 210 282 212 C300 190 312 140 318 104" stroke="#e0474c" stroke-width="3"/>
<ellipse cx="320" cy="62" rx="118" ry="50" fill="#f8e6ef" stroke="#b0607e" stroke-width="2"/>
<path d="M230 52 C260 30 300 40 320 30 C350 22 380 38 400 46" stroke="#b0607e" stroke-width="1.5"/>
<ellipse cx="320" cy="86" rx="18" ry="11" fill="#6b4fa8"/>
<path d="M344 98 C380 130 396 170 360 200 C330 222 300 200 252 196" stroke="#2f8a4c" stroke-width="3" stroke-dasharray="8 6"/>
<path d="M262 190 L252 196 L262 202" stroke="#2f8a4c" stroke-width="3"/>
</svg>
