<svg xmlns="http://www.w3.org/2000/svg" width="480" height="300" viewBox="0 0 480 300" fill="none" stroke-linecap="round" stroke-linejoin="round">
<rect width="480" height="300" rx="14" fill="#101826"/>
<rect x="20" y="40" width="440" height="14" fill="#f0a6a0"/><rect x="20" y="54" width="440" height="30" fill="#5b4a2a"/><rect x="20" y="88" width="440" height="32" rx="6" fill="#7f3b4a"/><rect x="20" y="126" width="440" height="40" rx="6" fill="#7f3b4a"/><rect x="20" y="172" width="440" height="30" rx="6" fill="#7f3b4a"/><path d="M20 210 h440" stroke="#94a3b8" stroke-width="2" stroke-dasharray="6 5"/><ellipse cx="80" cy="250" rx="34" ry="20" fill="none" stroke="#94a3b8" stroke-width="2.5"/><ellipse cx="160" cy="250" rx="34" ry="20" fill="none" stroke="#94a3b8" stroke-width="2.5"/><ellipse cx="240" cy="250" rx="34" ry="20" fill="none" stroke="#94a3b8" stroke-width="2.5"/><ellipse cx="320" cy="250" rx="34" ry="20" fill="none" stroke="#94a3b8" stroke-width="2.5"/><ellipse cx="400" cy="250" rx="34" ry="20" fill="none" stroke="#94a3b8" stroke-width="2.5"/><rect x="180" y="12" width="90" height="26" rx="8" fill="#1e293b" stroke="#94a3b8" stroke-width="2"/><path d="M40 20 L262 168" stroke="#f5b942" stroke-width="3"/><ellipse cx="300" cy="169" rx="70" ry="7" fill="#2dd4bf"/>
</svg>
