<svg xmlns="http://www.w3.org/2000/svg" width="480" height="300" viewBox="0 0 480 300" fill="none" stroke-linecap="round" stroke-linejoin="round">
<rect width="480" height="300" rx="14" fill="#101826"/>
<line x1="240" y1="50" x2="120" y2="155" stroke="#475569" stroke-width="2"/>
<line x1="240" y1="50" x2="360" y2="155" stroke="#475569" stroke-width="2"/>
<line x1="240" y1="50" x2="180" y2="250" stroke="#475569" stroke-width="2"/>
<line x1="240" y1="50" x2="300" y2="250" stroke="#475569" stroke-width="2"/>
<rect x="170" y="120" width="140" height="70" rx="30" fill="#1e293b" stroke="#475569" stroke-width="3"/>
<circle cx="240" cy="50" r="22" fill="#f5b942"/>
<circle cx="120" cy="155" r="18" fill="#2dd4bf"/>
<circle cx="360" cy="155" r="18" fill="#2dd4bf"/>
<circle cx="180" cy="250" r="18" fill="#2dd4bf"/>
<circle cx="300" cy="250" r="18" fill="#2dd4bf"/>
<ellipse cx="305" cy="100" rx="48" ry="18" stroke="#2dd4bf" stroke-width="3" stroke-dasharray="6 5" transform="rotate(40 305 100)"/>
<rect x="400" y="220" width="50" height="64" rx="6" fill="#e2e8f0"/>
<rect x="412" y="214" width="26" height="10" rx="3" fill="#94a3b8"/>
<line x1="410" y1="240" x2="440" y2="240" stroke="#475569" stroke-width="3"/>
<line x1="410" y1="254" x2="440" y2="254" stroke="#475569" stroke-width="3"/>
<line x1="410" y1="268" x2="432" y2="268" stroke="#475569" stroke-width="3"/>
</svg>
